<mxfile host="app.diagrams.net" modified="2021-04-04T01:42:59.025Z" agent="5.0 (Macintosh; Intel Mac OS X 10_14_3) AppleWebKit/537.36 (KHTML, like Gecko) Chrome/89.0.4389.90 Safari/537.36" etag="W3mrv4Eu-75l2Cx4JSZ0" version="14.5.1" type="github">
  <diagram id="3228e29e-7158-1315-38df-8450db1d8a1d" name="Page-1">
    <mxGraphModel dx="745" dy="1237" grid="1" gridSize="10" guides="1" tooltips="1" connect="1" arrows="1" fold="1" page="1" pageScale="1" pageWidth="850" pageHeight="210" background="#ffffff" math="0" shadow="1">
      <root>
        <mxCell id="0" />
        <mxCell id="1" parent="0" />
        <mxCell id="T-5VQnCJckOgUX1Wp16H-51" value="" style="rounded=1;whiteSpace=wrap;html=1;strokeColor=#000000;fillColor=none;dashed=1;strokeWidth=5;arcSize=8;" parent="1" vertex="1">
          <mxGeometry x="40" y="-106" width="460" height="450" as="geometry" />
        </mxCell>
        <mxCell id="T-5VQnCJckOgUX1Wp16H-52" value="" style="rounded=1;whiteSpace=wrap;html=1;fillColor=none;dashed=1;strokeWidth=5;" parent="1" vertex="1">
          <mxGeometry x="612.46" y="200" width="447.56" height="380" as="geometry" />
        </mxCell>
        <mxCell id="T-5VQnCJckOgUX1Wp16H-50" value="" style="rounded=1;whiteSpace=wrap;html=1;fillColor=none;dashed=1;strokeWidth=5;" parent="1" vertex="1">
          <mxGeometry x="1149" y="-100" width="481" height="450" as="geometry" />
        </mxCell>
        <mxCell id="hxIQwMxnJQ58AHrIh3xL-3" style="edgeStyle=orthogonalEdgeStyle;rounded=0;orthogonalLoop=1;jettySize=auto;html=1;exitX=1;exitY=0.5;exitDx=0;exitDy=0;exitPerimeter=0;strokeWidth=10;endArrow=none;endFill=0;entryX=0.5;entryY=0;entryDx=0;entryDy=0;entryPerimeter=0;fontSize=30;" parent="1" source="WelgVeyDKxLRvEI-DW8B-16" target="T-5VQnCJckOgUX1Wp16H-4" edge="1">
          <mxGeometry relative="1" as="geometry">
            <mxPoint x="344.83" y="101.95000000000005" as="targetPoint" />
          </mxGeometry>
        </mxCell>
        <mxCell id="WelgVeyDKxLRvEI-DW8B-16" value="" style="fontColor=#0066CC;verticalAlign=top;verticalLabelPosition=bottom;labelPosition=center;align=center;html=1;outlineConnect=0;gradientColor=none;gradientDirection=north;strokeWidth=2;shape=mxgraph.networks.pc;fillColor=#67AB9F;fontSize=30;" parent="1" vertex="1">
          <mxGeometry x="187.85000000000002" y="-30" width="147.15" height="103" as="geometry" />
        </mxCell>
        <mxCell id="hxIQwMxnJQ58AHrIh3xL-1" value="&lt;font style=&quot;font-size: 30px;&quot;&gt;A&lt;/font&gt;" style="text;html=1;strokeColor=none;fillColor=none;align=center;verticalAlign=middle;whiteSpace=wrap;rounded=0;fontSize=30;" parent="1" vertex="1">
          <mxGeometry x="252.85000000000002" width="40" height="20" as="geometry" />
        </mxCell>
        <mxCell id="fYc7Ru6buci-YKz5Eo-_-3" style="edgeStyle=orthogonalEdgeStyle;rounded=0;orthogonalLoop=1;jettySize=auto;html=1;exitX=1;exitY=0.5;exitDx=0;exitDy=0;exitPerimeter=0;endArrow=none;endFill=0;strokeWidth=10;fontSize=30;" parent="1" source="_KJd5dzx4qh3lxpyMWcO-2" edge="1">
          <mxGeometry relative="1" as="geometry">
            <mxPoint x="403.33000000000004" y="139" as="targetPoint" />
          </mxGeometry>
        </mxCell>
        <mxCell id="_KJd5dzx4qh3lxpyMWcO-2" value="" style="fontColor=#0066CC;verticalAlign=top;verticalLabelPosition=bottom;labelPosition=center;align=center;html=1;outlineConnect=0;gradientColor=none;gradientDirection=north;strokeWidth=2;shape=mxgraph.networks.pc;fillColor=#67AB9F;fontSize=30;" parent="1" vertex="1">
          <mxGeometry x="187.84999999999997" y="170" width="147.15" height="103" as="geometry" />
        </mxCell>
        <mxCell id="_KJd5dzx4qh3lxpyMWcO-3" value="&lt;span style=&quot;font-size: 30px;&quot;&gt;B&lt;br style=&quot;font-size: 30px;&quot;&gt;&lt;/span&gt;" style="text;html=1;strokeColor=none;fillColor=none;align=center;verticalAlign=middle;whiteSpace=wrap;rounded=0;fontSize=30;" parent="1" vertex="1">
          <mxGeometry x="252.84999999999997" y="200" width="40" height="20" as="geometry" />
        </mxCell>
        <mxCell id="fYc7Ru6buci-YKz5Eo-_-4" value="&lt;span style=&quot;font-size: 30px&quot;&gt;交换机&lt;/span&gt;" style="text;html=1;strokeColor=none;fillColor=none;align=center;verticalAlign=middle;whiteSpace=wrap;rounded=0;fontSize=30;" parent="1" vertex="1">
          <mxGeometry x="235" y="103.5" width="100" height="31" as="geometry" />
        </mxCell>
        <mxCell id="o6Qymi9LCWFlwB0xCJtG-19" value="目的IP" style="rounded=0;whiteSpace=wrap;html=1;strokeColor=#376B73;strokeWidth=2;fontSize=30;fillColor=#67AB9F;" parent="1" vertex="1">
          <mxGeometry x="479" y="-370" width="227" height="60" as="geometry" />
        </mxCell>
        <mxCell id="o6Qymi9LCWFlwB0xCJtG-20" value="子网掩码" style="rounded=0;whiteSpace=wrap;html=1;strokeColor=#376B73;strokeWidth=2;fontSize=30;fillColor=#67AB9F;" parent="1" vertex="1">
          <mxGeometry x="706" y="-370" width="206.35" height="60" as="geometry" />
        </mxCell>
        <mxCell id="o6Qymi9LCWFlwB0xCJtG-21" value="网关" style="rounded=0;whiteSpace=wrap;html=1;strokeColor=#376B73;strokeWidth=2;fontSize=30;fillColor=#67AB9F;" parent="1" vertex="1">
          <mxGeometry x="910.02" y="-370" width="150" height="60" as="geometry" />
        </mxCell>
        <mxCell id="o6Qymi9LCWFlwB0xCJtG-25" value="192.168.0.0" style="rounded=0;whiteSpace=wrap;html=1;strokeColor=#376B73;strokeWidth=2;fontSize=30;fillColor=#FFE599;" parent="1" vertex="1">
          <mxGeometry x="479" y="-310" width="227" height="60" as="geometry" />
        </mxCell>
        <mxCell id="o6Qymi9LCWFlwB0xCJtG-26" value="255.255.255.0" style="rounded=0;whiteSpace=wrap;html=1;strokeColor=#376B73;strokeWidth=2;fontSize=30;fillColor=#FFE599;" parent="1" vertex="1">
          <mxGeometry x="706" y="-310" width="206.35" height="60" as="geometry" />
        </mxCell>
        <mxCell id="o6Qymi9LCWFlwB0xCJtG-27" value="——" style="rounded=0;whiteSpace=wrap;html=1;strokeColor=#376B73;strokeWidth=2;fontSize=30;fillColor=#FFE599;" parent="1" vertex="1">
          <mxGeometry x="910.02" y="-310" width="150" height="60" as="geometry" />
        </mxCell>
        <mxCell id="o6Qymi9LCWFlwB0xCJtG-28" value="192.168.1.0" style="rounded=0;whiteSpace=wrap;html=1;strokeColor=#376B73;strokeWidth=2;fontSize=30;fillColor=#FFE599;" parent="1" vertex="1">
          <mxGeometry x="479" y="-250" width="227" height="60" as="geometry" />
        </mxCell>
        <mxCell id="o6Qymi9LCWFlwB0xCJtG-29" value="255.255.255.0" style="rounded=0;whiteSpace=wrap;html=1;strokeColor=#376B73;strokeWidth=2;fontSize=30;fillColor=#FFE599;" parent="1" vertex="1">
          <mxGeometry x="706" y="-250" width="206.35" height="60" as="geometry" />
        </mxCell>
        <mxCell id="o6Qymi9LCWFlwB0xCJtG-30" value="——" style="rounded=0;whiteSpace=wrap;html=1;strokeColor=#376B73;strokeWidth=2;fontSize=30;fillColor=#FFE599;" parent="1" vertex="1">
          <mxGeometry x="910.02" y="-250" width="150" height="60" as="geometry" />
        </mxCell>
        <mxCell id="o6Qymi9LCWFlwB0xCJtG-31" value="0.0.0.0" style="rounded=0;whiteSpace=wrap;html=1;strokeColor=#376B73;strokeWidth=2;fontSize=30;fillColor=#FFE599;" parent="1" vertex="1">
          <mxGeometry x="479" y="-190" width="227" height="60" as="geometry" />
        </mxCell>
        <mxCell id="o6Qymi9LCWFlwB0xCJtG-32" value="0.0.0.0" style="rounded=0;whiteSpace=wrap;html=1;strokeColor=#376B73;strokeWidth=2;fontSize=30;fillColor=#FFE599;" parent="1" vertex="1">
          <mxGeometry x="706" y="-190" width="206.35" height="60" as="geometry" />
        </mxCell>
        <mxCell id="o6Qymi9LCWFlwB0xCJtG-33" value="192.0.2.1" style="rounded=0;whiteSpace=wrap;html=1;strokeColor=#376B73;strokeWidth=2;fontSize=30;fillColor=#FFE599;" parent="1" vertex="1">
          <mxGeometry x="910.02" y="-190" width="150" height="60" as="geometry" />
        </mxCell>
        <mxCell id="T-5VQnCJckOgUX1Wp16H-17" style="edgeStyle=orthogonalEdgeStyle;rounded=0;orthogonalLoop=1;jettySize=auto;html=1;exitX=1;exitY=0.5;exitDx=0;exitDy=0;exitPerimeter=0;endArrow=none;endFill=0;strokeWidth=10;" parent="1" source="T-5VQnCJckOgUX1Wp16H-3" target="T-5VQnCJckOgUX1Wp16H-16" edge="1">
          <mxGeometry relative="1" as="geometry">
            <mxPoint x="1050.0000000000005" y="119" as="sourcePoint" />
          </mxGeometry>
        </mxCell>
        <mxCell id="T-5VQnCJckOgUX1Wp16H-40" style="edgeStyle=orthogonalEdgeStyle;rounded=0;orthogonalLoop=1;jettySize=auto;html=1;exitX=0.5;exitY=1;exitDx=0;exitDy=0;exitPerimeter=0;endArrow=none;endFill=0;strokeWidth=10;fillColor=#5A6EAB;fontSize=30;" parent="1" source="T-5VQnCJckOgUX1Wp16H-3" target="T-5VQnCJckOgUX1Wp16H-37" edge="1">
          <mxGeometry relative="1" as="geometry" />
        </mxCell>
        <mxCell id="T-5VQnCJckOgUX1Wp16H-3" value="" style="fontColor=#0066CC;verticalAlign=top;verticalLabelPosition=bottom;labelPosition=center;align=center;html=1;outlineConnect=0;gradientColor=none;gradientDirection=north;strokeWidth=2;shape=mxgraph.networks.router;fillColor=#5A6EAB;fontSize=30;" parent="1" vertex="1">
          <mxGeometry x="770" y="99" width="133.33" height="40" as="geometry" />
        </mxCell>
        <mxCell id="T-5VQnCJckOgUX1Wp16H-6" style="edgeStyle=orthogonalEdgeStyle;rounded=0;orthogonalLoop=1;jettySize=auto;html=1;exitX=1;exitY=0.5;exitDx=0;exitDy=0;exitPerimeter=0;endArrow=none;endFill=0;strokeWidth=10;" parent="1" source="T-5VQnCJckOgUX1Wp16H-4" target="T-5VQnCJckOgUX1Wp16H-3" edge="1">
          <mxGeometry relative="1" as="geometry" />
        </mxCell>
        <mxCell id="T-5VQnCJckOgUX1Wp16H-4" value="" style="fontColor=#0066CC;verticalAlign=top;verticalLabelPosition=bottom;labelPosition=center;align=center;html=1;outlineConnect=0;gradientColor=none;gradientDirection=north;strokeWidth=2;shape=mxgraph.networks.switch;fillColor=#F19C99;" parent="1" vertex="1">
          <mxGeometry x="334.99999999999994" y="99" width="133.33" height="40" as="geometry" />
        </mxCell>
        <mxCell id="T-5VQnCJckOgUX1Wp16H-5" value="&lt;span style=&quot;font-size: 30px&quot;&gt;路由器&lt;/span&gt;" style="text;html=1;strokeColor=none;fillColor=none;align=center;verticalAlign=middle;whiteSpace=wrap;rounded=0;fontSize=30;" parent="1" vertex="1">
          <mxGeometry x="786.66" y="62" width="100" height="31" as="geometry" />
        </mxCell>
        <mxCell id="T-5VQnCJckOgUX1Wp16H-7" style="edgeStyle=orthogonalEdgeStyle;rounded=0;orthogonalLoop=1;jettySize=auto;html=1;exitX=0;exitY=0.5;exitDx=0;exitDy=0;exitPerimeter=0;strokeWidth=10;endArrow=none;endFill=0;entryX=0.5;entryY=0;entryDx=0;entryDy=0;entryPerimeter=0;fontSize=30;" parent="1" source="T-5VQnCJckOgUX1Wp16H-8" target="T-5VQnCJckOgUX1Wp16H-16" edge="1">
          <mxGeometry relative="1" as="geometry">
            <mxPoint x="1228.83" y="101.95000000000005" as="targetPoint" />
          </mxGeometry>
        </mxCell>
        <mxCell id="T-5VQnCJckOgUX1Wp16H-8" value="" style="fontColor=#0066CC;verticalAlign=top;verticalLabelPosition=bottom;labelPosition=center;align=center;html=1;outlineConnect=0;gradientColor=none;gradientDirection=north;strokeWidth=2;shape=mxgraph.networks.pc;fillColor=#67AB9F;fontSize=30;" parent="1" vertex="1">
          <mxGeometry x="1352.33" y="-30" width="147.15" height="103" as="geometry" />
        </mxCell>
        <mxCell id="T-5VQnCJckOgUX1Wp16H-9" value="&lt;font style=&quot;font-size: 30px;&quot;&gt;C&lt;/font&gt;" style="text;html=1;strokeColor=none;fillColor=none;align=center;verticalAlign=middle;whiteSpace=wrap;rounded=0;fontSize=30;" parent="1" vertex="1">
          <mxGeometry x="1417.33" width="40" height="20" as="geometry" />
        </mxCell>
        <mxCell id="T-5VQnCJckOgUX1Wp16H-10" style="edgeStyle=orthogonalEdgeStyle;rounded=0;orthogonalLoop=1;jettySize=auto;html=1;exitX=0;exitY=0.5;exitDx=0;exitDy=0;exitPerimeter=0;endArrow=none;endFill=0;strokeWidth=10;fontSize=30;" parent="1" source="T-5VQnCJckOgUX1Wp16H-11" edge="1">
          <mxGeometry relative="1" as="geometry">
            <mxPoint x="1287.33" y="139" as="targetPoint" />
          </mxGeometry>
        </mxCell>
        <mxCell id="T-5VQnCJckOgUX1Wp16H-11" value="" style="fontColor=#0066CC;verticalAlign=top;verticalLabelPosition=bottom;labelPosition=center;align=center;html=1;outlineConnect=0;gradientColor=none;gradientDirection=north;strokeWidth=2;shape=mxgraph.networks.pc;fillColor=#67AB9F;fontSize=30;" parent="1" vertex="1">
          <mxGeometry x="1359" y="170" width="147.15" height="103" as="geometry" />
        </mxCell>
        <mxCell id="T-5VQnCJckOgUX1Wp16H-12" value="&lt;span style=&quot;font-size: 30px;&quot;&gt;D&lt;br style=&quot;font-size: 30px;&quot;&gt;&lt;/span&gt;" style="text;html=1;strokeColor=none;fillColor=none;align=center;verticalAlign=middle;whiteSpace=wrap;rounded=0;fontSize=30;" parent="1" vertex="1">
          <mxGeometry x="1424" y="200" width="40" height="20" as="geometry" />
        </mxCell>
        <mxCell id="T-5VQnCJckOgUX1Wp16H-13" value="&lt;span style=&quot;font-size: 30px&quot;&gt;交换机&lt;/span&gt;" style="text;html=1;strokeColor=none;fillColor=none;align=center;verticalAlign=middle;whiteSpace=wrap;rounded=0;fontSize=30;" parent="1" vertex="1">
          <mxGeometry x="1364" y="103.5" width="100" height="31" as="geometry" />
        </mxCell>
        <mxCell id="T-5VQnCJckOgUX1Wp16H-16" value="" style="fontColor=#0066CC;verticalAlign=top;verticalLabelPosition=bottom;labelPosition=center;align=center;html=1;outlineConnect=0;gradientColor=none;gradientDirection=north;strokeWidth=2;shape=mxgraph.networks.switch;fillColor=#F19C99;" parent="1" vertex="1">
          <mxGeometry x="1219" y="99" width="133.33" height="40" as="geometry" />
        </mxCell>
        <mxCell id="T-5VQnCJckOgUX1Wp16H-26" value="&lt;font style=&quot;font-size: 30px;&quot;&gt;e2:&lt;/font&gt;&lt;span style=&quot;font-size: 30px;&quot;&gt;192.168.1.11/24&lt;/span&gt;" style="text;html=1;strokeColor=none;fillColor=none;align=center;verticalAlign=middle;whiteSpace=wrap;rounded=0;fontSize=30;" parent="1" vertex="1">
          <mxGeometry x="910.0200000000001" y="42" width="186.67" height="20" as="geometry" />
        </mxCell>
        <mxCell id="T-5VQnCJckOgUX1Wp16H-27" value="&lt;font style=&quot;font-size: 30px;&quot;&gt;192.168.0.105/24&lt;/font&gt;" style="text;html=1;strokeColor=none;fillColor=none;align=center;verticalAlign=middle;whiteSpace=wrap;rounded=0;fontSize=30;" parent="1" vertex="1">
          <mxGeometry x="211.85" y="-60" width="169" height="20" as="geometry" />
        </mxCell>
        <mxCell id="T-5VQnCJckOgUX1Wp16H-28" value="&lt;font style=&quot;font-size: 30px;&quot;&gt;192.168.0.106&lt;/font&gt;&lt;span style=&quot;font-size: 30px;&quot;&gt;/24&lt;/span&gt;" style="text;html=1;strokeColor=none;fillColor=none;align=center;verticalAlign=middle;whiteSpace=wrap;rounded=0;fontSize=30;" parent="1" vertex="1">
          <mxGeometry x="221.85000000000002" y="290" width="179" height="20" as="geometry" />
        </mxCell>
        <mxCell id="T-5VQnCJckOgUX1Wp16H-29" value="&lt;font style=&quot;font-size: 30px;&quot;&gt;192.168.1.10/24&lt;/font&gt;" style="text;html=1;strokeColor=none;fillColor=none;align=center;verticalAlign=middle;whiteSpace=wrap;rounded=0;fontSize=30;" parent="1" vertex="1">
          <mxGeometry x="1352.33" y="-60" width="205" height="20" as="geometry" />
        </mxCell>
        <mxCell id="T-5VQnCJckOgUX1Wp16H-33" value="&lt;font style=&quot;font-size: 30px;&quot;&gt;192.168.1.11/24&lt;/font&gt;" style="text;html=1;strokeColor=none;fillColor=none;align=center;verticalAlign=middle;whiteSpace=wrap;rounded=0;fontSize=30;" parent="1" vertex="1">
          <mxGeometry x="1352.33" y="290" width="205" height="20" as="geometry" />
        </mxCell>
        <mxCell id="T-5VQnCJckOgUX1Wp16H-35" value="&lt;font style=&quot;font-size: 30px;&quot;&gt;e1:&lt;/font&gt;&lt;span style=&quot;font-size: 30px;&quot;&gt;192.0.2.2/24&lt;/span&gt;" style="text;html=1;strokeColor=none;fillColor=none;align=center;verticalAlign=middle;whiteSpace=wrap;rounded=0;fontSize=30;" parent="1" vertex="1">
          <mxGeometry x="860" y="150" width="186.67" height="20" as="geometry" />
        </mxCell>
        <mxCell id="T-5VQnCJckOgUX1Wp16H-36" value="&lt;span style=&quot;font-size: 30px;&quot;&gt;192.168.0.107/24 :&lt;/span&gt;&lt;span style=&quot;font-size: 30px;&quot;&gt;e3&lt;/span&gt;" style="text;html=1;strokeColor=none;fillColor=none;align=center;verticalAlign=middle;whiteSpace=wrap;rounded=0;fontSize=30;" parent="1" vertex="1">
          <mxGeometry x="506.85" y="42" width="303.15" height="20" as="geometry" />
        </mxCell>
        <mxCell id="T-5VQnCJckOgUX1Wp16H-43" style="edgeStyle=orthogonalEdgeStyle;rounded=0;orthogonalLoop=1;jettySize=auto;html=1;exitX=0.5;exitY=1;exitDx=0;exitDy=0;exitPerimeter=0;endArrow=none;endFill=0;strokeColor=#000000;strokeWidth=10;fillColor=#5A6EAB;" parent="1" source="T-5VQnCJckOgUX1Wp16H-37" target="T-5VQnCJckOgUX1Wp16H-42" edge="1">
          <mxGeometry relative="1" as="geometry" />
        </mxCell>
        <mxCell id="T-5VQnCJckOgUX1Wp16H-37" value="" style="fontColor=#0066CC;verticalAlign=top;verticalLabelPosition=bottom;labelPosition=center;align=center;html=1;outlineConnect=0;gradientColor=none;gradientDirection=north;strokeWidth=2;shape=mxgraph.networks.router;fillColor=#5A6EAB;" parent="1" vertex="1">
          <mxGeometry x="769.99" y="252" width="133.33" height="40" as="geometry" />
        </mxCell>
        <mxCell id="T-5VQnCJckOgUX1Wp16H-38" value="&lt;span style=&quot;font-size: 30px&quot;&gt;其他路由器&lt;/span&gt;" style="text;html=1;strokeColor=none;fillColor=none;align=center;verticalAlign=middle;whiteSpace=wrap;rounded=0;fontSize=30;" parent="1" vertex="1">
          <mxGeometry x="650" y="220" width="160" height="26" as="geometry" />
        </mxCell>
        <mxCell id="T-5VQnCJckOgUX1Wp16H-41" value="&lt;font style=&quot;font-size: 30px;&quot;&gt;f2:&amp;nbsp;&lt;/font&gt;&lt;span style=&quot;font-size: 30px;&quot;&gt;192.0.2.1/24&lt;/span&gt;" style="text;html=1;strokeColor=none;fillColor=none;align=center;verticalAlign=middle;whiteSpace=wrap;rounded=0;fontSize=30;" parent="1" vertex="1">
          <mxGeometry x="860" y="226" width="186.67" height="20" as="geometry" />
        </mxCell>
        <mxCell id="T-5VQnCJckOgUX1Wp16H-42" value="&lt;font style=&quot;font-size: 30px&quot; color=&quot;#000000&quot;&gt;互联网&lt;/font&gt;" style="html=1;outlineConnect=0;gradientColor=none;gradientDirection=north;strokeWidth=2;shape=mxgraph.networks.cloud;fontColor=#ffffff;strokeColor=none;fillColor=#D98C8A;" parent="1" vertex="1">
          <mxGeometry x="743.34" y="360" width="186.66" height="110" as="geometry" />
        </mxCell>
        <mxCell id="T-5VQnCJckOgUX1Wp16H-44" value="出口" style="rounded=0;whiteSpace=wrap;html=1;strokeColor=#376B73;strokeWidth=2;fontSize=30;fillColor=#67AB9F;" parent="1" vertex="1">
          <mxGeometry x="1060.02" y="-370" width="150" height="60" as="geometry" />
        </mxCell>
        <mxCell id="T-5VQnCJckOgUX1Wp16H-46" value="e3" style="rounded=0;whiteSpace=wrap;html=1;strokeColor=#376B73;strokeWidth=2;fontSize=30;fillColor=#FFE599;" parent="1" vertex="1">
          <mxGeometry x="1060.02" y="-310" width="150" height="60" as="geometry" />
        </mxCell>
        <mxCell id="T-5VQnCJckOgUX1Wp16H-47" value="e2" style="rounded=0;whiteSpace=wrap;html=1;strokeColor=#376B73;strokeWidth=2;fontSize=30;fillColor=#FFE599;" parent="1" vertex="1">
          <mxGeometry x="1060.02" y="-250" width="150" height="60" as="geometry" />
        </mxCell>
        <mxCell id="T-5VQnCJckOgUX1Wp16H-48" value="e1" style="rounded=0;whiteSpace=wrap;html=1;strokeColor=#376B73;strokeWidth=2;fontSize=30;fillColor=#FFE599;" parent="1" vertex="1">
          <mxGeometry x="1060.02" y="-190" width="150" height="60" as="geometry" />
        </mxCell>
        <mxCell id="T-5VQnCJckOgUX1Wp16H-49" value="" style="shape=flexArrow;endArrow=classic;html=1;strokeWidth=10;fillColor=#5A6EAB;strokeColor=#5A6EAB;endWidth=70;endSize=12;width=28;" parent="1" edge="1">
          <mxGeometry width="50" height="50" relative="1" as="geometry">
            <mxPoint x="836" y="25" as="sourcePoint" />
            <mxPoint x="835.67" y="-95" as="targetPoint" />
          </mxGeometry>
        </mxCell>
        <mxCell id="T-5VQnCJckOgUX1Wp16H-55" value="&lt;font style=&quot;font-size: 40px&quot;&gt;192.168.0.0&lt;/font&gt;" style="text;html=1;strokeColor=none;fillColor=none;align=center;verticalAlign=middle;whiteSpace=wrap;rounded=0;fontSize=30;" parent="1" vertex="1">
          <mxGeometry x="161" y="-144" width="169" height="20" as="geometry" />
        </mxCell>
        <mxCell id="T-5VQnCJckOgUX1Wp16H-58" value="&lt;font style=&quot;font-size: 40px&quot;&gt;192.168.1.0&lt;/font&gt;" style="text;html=1;strokeColor=none;fillColor=none;align=center;verticalAlign=middle;whiteSpace=wrap;rounded=0;fontSize=30;" parent="1" vertex="1">
          <mxGeometry x="1364" y="-150" width="169" height="20" as="geometry" />
        </mxCell>
      </root>
    </mxGraphModel>
  </diagram>
</mxfile>
